<mxfile host="Electron" modified="2023-07-10T09:19:55.495Z" agent="Mozilla/5.0 (Windows NT 10.0; Win64; x64) AppleWebKit/537.36 (KHTML, like Gecko) draw.io/21.5.0 Chrome/112.0.5615.204 Electron/24.5.1 Safari/537.36" etag="rLLL9p48d5lMA5krzhN7" version="21.5.0" type="device">
  <diagram name="第 1 页" id="u7gGfsmnmlj809vHNaDc">
    <mxGraphModel dx="872" dy="998" grid="1" gridSize="10" guides="1" tooltips="1" connect="1" arrows="1" fold="1" page="1" pageScale="1" pageWidth="1169" pageHeight="827" math="0" shadow="0">
      <root>
        <mxCell id="0" />
        <mxCell id="1" parent="0" />
        <mxCell id="cMuiBvV1pdFu6jZ7Mck6-1" value="" style="shape=trapezoid;perimeter=trapezoidPerimeter;whiteSpace=wrap;html=1;fixedSize=1;rotation=90;size=13.75;" parent="1" vertex="1">
          <mxGeometry x="212" y="68.13" width="50" height="13.13" as="geometry" />
        </mxCell>
        <mxCell id="cMuiBvV1pdFu6jZ7Mck6-2" value="" style="shape=xor;whiteSpace=wrap;html=1;" parent="1" vertex="1">
          <mxGeometry x="189" y="146.13" width="30" height="40" as="geometry" />
        </mxCell>
        <mxCell id="cMuiBvV1pdFu6jZ7Mck6-3" value="" style="endArrow=none;html=1;rounded=0;entryX=0.218;entryY=0.319;entryDx=0;entryDy=0;entryPerimeter=0;" parent="1" target="cMuiBvV1pdFu6jZ7Mck6-2" edge="1">
          <mxGeometry width="50" height="50" relative="1" as="geometry">
            <mxPoint x="42" y="159.13" as="sourcePoint" />
            <mxPoint x="195" y="156.13" as="targetPoint" />
          </mxGeometry>
        </mxCell>
        <mxCell id="cMuiBvV1pdFu6jZ7Mck6-4" value="" style="endArrow=none;html=1;rounded=0;" parent="1" edge="1">
          <mxGeometry width="50" height="50" relative="1" as="geometry">
            <mxPoint x="90" y="176" as="sourcePoint" />
            <mxPoint x="195" y="176.13" as="targetPoint" />
          </mxGeometry>
        </mxCell>
        <mxCell id="cMuiBvV1pdFu6jZ7Mck6-5" value="&lt;font style=&quot;font-size: 10px;&quot;&gt;pipe0_load_e1_w&lt;/font&gt;" style="text;strokeColor=none;align=center;fillColor=none;html=1;verticalAlign=middle;whiteSpace=wrap;rounded=0;" parent="1" vertex="1">
          <mxGeometry x="107" y="143.13" width="80" height="10" as="geometry" />
        </mxCell>
        <mxCell id="cMuiBvV1pdFu6jZ7Mck6-6" value="&lt;font style=&quot;font-size: 10px;&quot;&gt;pipe0_mul_e1_w&lt;/font&gt;" style="text;strokeColor=none;align=center;fillColor=none;html=1;verticalAlign=middle;whiteSpace=wrap;rounded=0;" parent="1" vertex="1">
          <mxGeometry x="109" y="163.13" width="78" height="10" as="geometry" />
        </mxCell>
        <mxCell id="cMuiBvV1pdFu6jZ7Mck6-8" value="" style="endArrow=none;html=1;rounded=0;entryX=1;entryY=0.25;entryDx=0;entryDy=0;exitX=0.998;exitY=0.586;exitDx=0;exitDy=0;exitPerimeter=0;" parent="1" source="cMuiBvV1pdFu6jZ7Mck6-2" target="cMuiBvV1pdFu6jZ7Mck6-1" edge="1">
          <mxGeometry width="50" height="50" relative="1" as="geometry">
            <mxPoint x="220" y="170" as="sourcePoint" />
            <mxPoint x="283" y="113.13" as="targetPoint" />
            <Array as="points">
              <mxPoint x="239" y="169.13" />
            </Array>
          </mxGeometry>
        </mxCell>
        <mxCell id="cMuiBvV1pdFu6jZ7Mck6-10" value="" style="shape=trapezoid;perimeter=trapezoidPerimeter;whiteSpace=wrap;html=1;fixedSize=1;rotation=90;size=13.75;" parent="1" vertex="1">
          <mxGeometry x="145" y="60.129999999999995" width="50" height="13.13" as="geometry" />
        </mxCell>
        <mxCell id="cMuiBvV1pdFu6jZ7Mck6-12" value="" style="endArrow=none;html=1;rounded=0;entryX=0.364;entryY=0.998;entryDx=0;entryDy=0;entryPerimeter=0;" parent="1" target="cMuiBvV1pdFu6jZ7Mck6-10" edge="1">
          <mxGeometry width="50" height="50" relative="1" as="geometry">
            <mxPoint x="125" y="60.129999999999995" as="sourcePoint" />
            <mxPoint x="135" y="30.129999999999995" as="targetPoint" />
          </mxGeometry>
        </mxCell>
        <mxCell id="cMuiBvV1pdFu6jZ7Mck6-13" value="" style="endArrow=none;html=1;rounded=0;entryX=0.364;entryY=0.998;entryDx=0;entryDy=0;entryPerimeter=0;" parent="1" edge="1">
          <mxGeometry width="50" height="50" relative="1" as="geometry">
            <mxPoint x="125" y="80.13" as="sourcePoint" />
            <mxPoint x="163" y="80.13" as="targetPoint" />
          </mxGeometry>
        </mxCell>
        <mxCell id="cMuiBvV1pdFu6jZ7Mck6-14" value="&lt;font style=&quot;font-size: 10px;&quot;&gt;32&#39;b1&lt;/font&gt;" style="text;strokeColor=none;align=center;fillColor=none;html=1;verticalAlign=middle;whiteSpace=wrap;rounded=0;" parent="1" vertex="1">
          <mxGeometry x="121" y="49.129999999999995" width="30" height="10" as="geometry" />
        </mxCell>
        <mxCell id="cMuiBvV1pdFu6jZ7Mck6-15" value="&lt;font style=&quot;font-size: 10px;&quot;&gt;32&#39;b0&lt;/font&gt;" style="text;strokeColor=none;align=center;fillColor=none;html=1;verticalAlign=middle;whiteSpace=wrap;rounded=0;" parent="1" vertex="1">
          <mxGeometry x="120" y="69.25999999999999" width="30" height="10" as="geometry" />
        </mxCell>
        <mxCell id="cMuiBvV1pdFu6jZ7Mck6-16" value="" style="endArrow=none;html=1;rounded=0;entryX=1;entryY=0.5;entryDx=0;entryDy=0;" parent="1" target="cMuiBvV1pdFu6jZ7Mck6-10" edge="1">
          <mxGeometry width="50" height="50" relative="1" as="geometry">
            <mxPoint x="170" y="110.13" as="sourcePoint" />
            <mxPoint x="205" y="60.129999999999995" as="targetPoint" />
            <Array as="points" />
          </mxGeometry>
        </mxCell>
        <mxCell id="cMuiBvV1pdFu6jZ7Mck6-17" value="&lt;font style=&quot;font-size: 10px;&quot;&gt;pipe0_rd_e1_w&lt;/font&gt;" style="text;strokeColor=none;align=center;fillColor=none;html=1;verticalAlign=middle;whiteSpace=wrap;rounded=0;" parent="1" vertex="1">
          <mxGeometry x="135" y="110.13" width="70" height="10" as="geometry" />
        </mxCell>
        <mxCell id="cMuiBvV1pdFu6jZ7Mck6-18" value="" style="endArrow=none;html=1;rounded=0;entryX=0.381;entryY=0.99;entryDx=0;entryDy=0;entryPerimeter=0;" parent="1" target="cMuiBvV1pdFu6jZ7Mck6-1" edge="1">
          <mxGeometry width="50" height="50" relative="1" as="geometry">
            <mxPoint x="177" y="69.13" as="sourcePoint" />
            <mxPoint x="257" y="99.13" as="targetPoint" />
            <Array as="points" />
          </mxGeometry>
        </mxCell>
        <mxCell id="cMuiBvV1pdFu6jZ7Mck6-19" value="" style="endArrow=none;html=1;rounded=0;entryX=0.789;entryY=0.995;entryDx=0;entryDy=0;entryPerimeter=0;" parent="1" edge="1">
          <mxGeometry width="50" height="50" relative="1" as="geometry">
            <mxPoint x="191" y="88.25999999999999" as="sourcePoint" />
            <mxPoint x="230.50065" y="88.27499999999998" as="targetPoint" />
          </mxGeometry>
        </mxCell>
        <mxCell id="cMuiBvV1pdFu6jZ7Mck6-20" value="&lt;font style=&quot;font-size: 10px;&quot;&gt;32&#39;b0&lt;/font&gt;" style="text;strokeColor=none;align=center;fillColor=none;html=1;verticalAlign=middle;whiteSpace=wrap;rounded=0;" parent="1" vertex="1">
          <mxGeometry x="191" y="78.25999999999999" width="30" height="10" as="geometry" />
        </mxCell>
        <mxCell id="cMuiBvV1pdFu6jZ7Mck6-21" value="" style="endArrow=none;html=1;rounded=0;exitX=0.192;exitY=0.265;exitDx=0;exitDy=0;exitPerimeter=0;" parent="1" edge="1" source="cMuiBvV1pdFu6jZ7Mck6-22">
          <mxGeometry width="50" height="50" relative="1" as="geometry">
            <mxPoint x="199" y="269.13" as="sourcePoint" />
            <mxPoint x="90" y="159" as="targetPoint" />
            <Array as="points">
              <mxPoint x="90" y="230" />
            </Array>
          </mxGeometry>
        </mxCell>
        <mxCell id="cMuiBvV1pdFu6jZ7Mck6-22" value="" style="shape=xor;whiteSpace=wrap;html=1;" parent="1" vertex="1">
          <mxGeometry x="176" y="219.13" width="30" height="40" as="geometry" />
        </mxCell>
        <mxCell id="cMuiBvV1pdFu6jZ7Mck6-23" value="&lt;font style=&quot;font-size: 10px;&quot;&gt;pipe0_load_e1_w&lt;/font&gt;" style="text;strokeColor=none;align=center;fillColor=none;html=1;verticalAlign=middle;whiteSpace=wrap;rounded=0;" parent="1" vertex="1">
          <mxGeometry x="93" y="216.13" width="80" height="10" as="geometry" />
        </mxCell>
        <mxCell id="cMuiBvV1pdFu6jZ7Mck6-24" value="" style="endArrow=none;html=1;rounded=0;entryX=0.18;entryY=0.762;entryDx=0;entryDy=0;entryPerimeter=0;" parent="1" edge="1" target="cMuiBvV1pdFu6jZ7Mck6-22">
          <mxGeometry width="50" height="50" relative="1" as="geometry">
            <mxPoint x="80" y="250" as="sourcePoint" />
            <mxPoint x="182" y="249.13" as="targetPoint" />
          </mxGeometry>
        </mxCell>
        <mxCell id="cMuiBvV1pdFu6jZ7Mck6-25" value="&lt;font style=&quot;font-size: 10px;&quot;&gt;pipe0_store_e1_w&lt;/font&gt;" style="text;strokeColor=none;align=center;fillColor=none;html=1;verticalAlign=middle;whiteSpace=wrap;rounded=0;" parent="1" vertex="1">
          <mxGeometry x="92" y="236.13" width="78" height="10" as="geometry" />
        </mxCell>
        <mxCell id="cMuiBvV1pdFu6jZ7Mck6-26" value="" style="endArrow=none;html=1;rounded=0;entryX=0.769;entryY=0.987;entryDx=0;entryDy=0;exitX=0.588;exitY=0.006;exitDx=0;exitDy=0;exitPerimeter=0;entryPerimeter=0;" parent="1" source="cMuiBvV1pdFu6jZ7Mck6-1" target="cMuiBvV1pdFu6jZ7Mck6-28" edge="1">
          <mxGeometry width="50" height="50" relative="1" as="geometry">
            <mxPoint x="292" y="78.13" as="sourcePoint" />
            <mxPoint x="372" y="78.13" as="targetPoint" />
            <Array as="points" />
          </mxGeometry>
        </mxCell>
        <mxCell id="cMuiBvV1pdFu6jZ7Mck6-28" value="" style="shape=trapezoid;perimeter=trapezoidPerimeter;whiteSpace=wrap;html=1;fixedSize=1;rotation=90;size=13.75;" parent="1" vertex="1">
          <mxGeometry x="300" y="59" width="50" height="13.13" as="geometry" />
        </mxCell>
        <mxCell id="cMuiBvV1pdFu6jZ7Mck6-29" value="" style="endArrow=none;html=1;rounded=0;entryX=0.353;entryY=0.985;entryDx=0;entryDy=0;entryPerimeter=0;" parent="1" target="cMuiBvV1pdFu6jZ7Mck6-28" edge="1">
          <mxGeometry width="50" height="50" relative="1" as="geometry">
            <mxPoint x="280" y="58.129999999999995" as="sourcePoint" />
            <mxPoint x="290" y="55.129999999999995" as="targetPoint" />
          </mxGeometry>
        </mxCell>
        <mxCell id="cMuiBvV1pdFu6jZ7Mck6-32" value="&lt;font style=&quot;font-size: 10px;&quot;&gt;32&#39;b1&lt;/font&gt;" style="text;strokeColor=none;align=center;fillColor=none;html=1;verticalAlign=middle;whiteSpace=wrap;rounded=0;" parent="1" vertex="1">
          <mxGeometry x="282" y="47.129999999999995" width="30" height="10" as="geometry" />
        </mxCell>
        <mxCell id="cMuiBvV1pdFu6jZ7Mck6-33" value="" style="endArrow=none;html=1;rounded=0;exitX=0.578;exitY=-0.001;exitDx=0;exitDy=0;exitPerimeter=0;entryX=0.306;entryY=0.995;entryDx=0;entryDy=0;entryPerimeter=0;" parent="1" source="cMuiBvV1pdFu6jZ7Mck6-28" edge="1" target="cMuiBvV1pdFu6jZ7Mck6-38">
          <mxGeometry width="50" height="50" relative="1" as="geometry">
            <mxPoint x="350" y="81.25999999999999" as="sourcePoint" />
            <mxPoint x="400" y="69.13" as="targetPoint" />
          </mxGeometry>
        </mxCell>
        <mxCell id="cMuiBvV1pdFu6jZ7Mck6-35" value="&lt;font style=&quot;font-size: 10px;&quot;&gt;pipe1_rd_e1_w&lt;/font&gt;" style="text;strokeColor=none;align=center;fillColor=none;html=1;verticalAlign=middle;whiteSpace=wrap;rounded=0;" parent="1" vertex="1">
          <mxGeometry x="264" y="110.13" width="70" height="10" as="geometry" />
        </mxCell>
        <mxCell id="cMuiBvV1pdFu6jZ7Mck6-36" value="" style="endArrow=none;html=1;rounded=0;entryX=1;entryY=0.5;entryDx=0;entryDy=0;" parent="1" edge="1">
          <mxGeometry width="50" height="50" relative="1" as="geometry">
            <mxPoint x="324.76" y="110.13" as="sourcePoint" />
            <mxPoint x="324.76" y="85.13" as="targetPoint" />
            <Array as="points" />
          </mxGeometry>
        </mxCell>
        <mxCell id="cMuiBvV1pdFu6jZ7Mck6-37" value="" style="endArrow=none;html=1;rounded=0;exitX=0.724;exitY=1.012;exitDx=0;exitDy=0;exitPerimeter=0;" parent="1" edge="1" source="cMuiBvV1pdFu6jZ7Mck6-38">
          <mxGeometry width="50" height="50" relative="1" as="geometry">
            <mxPoint x="400" y="89.13" as="sourcePoint" />
            <mxPoint x="260" y="79.13" as="targetPoint" />
            <Array as="points">
              <mxPoint x="340" y="90" />
              <mxPoint x="340" y="140" />
              <mxPoint x="260" y="140" />
            </Array>
          </mxGeometry>
        </mxCell>
        <mxCell id="cMuiBvV1pdFu6jZ7Mck6-38" value="" style="shape=trapezoid;perimeter=trapezoidPerimeter;whiteSpace=wrap;html=1;fixedSize=1;rotation=90;size=13.75;" parent="1" vertex="1">
          <mxGeometry x="362" y="72.25999999999999" width="50" height="13.13" as="geometry" />
        </mxCell>
        <mxCell id="cMuiBvV1pdFu6jZ7Mck6-39" value="" style="endArrow=none;html=1;rounded=0;exitX=1;exitY=0.5;exitDx=0;exitDy=0;exitPerimeter=0;" parent="1" source="cMuiBvV1pdFu6jZ7Mck6-22" edge="1">
          <mxGeometry width="50" height="50" relative="1" as="geometry">
            <mxPoint x="235" y="239.13" as="sourcePoint" />
            <mxPoint x="322" y="239.13" as="targetPoint" />
            <Array as="points">
              <mxPoint x="262" y="239.13" />
            </Array>
          </mxGeometry>
        </mxCell>
        <mxCell id="cMuiBvV1pdFu6jZ7Mck6-40" value="" style="shape=xor;whiteSpace=wrap;html=1;" parent="1" vertex="1">
          <mxGeometry x="299.25" y="226.13" width="26.75" height="43" as="geometry" />
        </mxCell>
        <mxCell id="cMuiBvV1pdFu6jZ7Mck6-41" value="&lt;font style=&quot;font-size: 10px;&quot;&gt;pipe1_load_e1_w&lt;/font&gt;" style="text;strokeColor=none;align=center;fillColor=none;html=1;verticalAlign=middle;whiteSpace=wrap;rounded=0;" parent="1" vertex="1">
          <mxGeometry x="223.63" y="246.13" width="80" height="10" as="geometry" />
        </mxCell>
        <mxCell id="cMuiBvV1pdFu6jZ7Mck6-43" value="" style="endArrow=none;html=1;rounded=0;entryX=0.211;entryY=0.676;entryDx=0;entryDy=0;entryPerimeter=0;" parent="1" target="cMuiBvV1pdFu6jZ7Mck6-47" edge="1">
          <mxGeometry width="50" height="50" relative="1" as="geometry">
            <mxPoint x="120" y="199.13" as="sourcePoint" />
            <mxPoint x="280" y="199.13" as="targetPoint" />
            <Array as="points" />
          </mxGeometry>
        </mxCell>
        <mxCell id="cMuiBvV1pdFu6jZ7Mck6-44" value="" style="endArrow=none;html=1;rounded=0;exitX=0.157;exitY=0.783;exitDx=0;exitDy=0;exitPerimeter=0;" parent="1" source="cMuiBvV1pdFu6jZ7Mck6-40" edge="1">
          <mxGeometry width="50" height="50" relative="1" as="geometry">
            <mxPoint x="230" y="299.13" as="sourcePoint" />
            <mxPoint x="220" y="199" as="targetPoint" />
            <Array as="points">
              <mxPoint x="220" y="260" />
            </Array>
          </mxGeometry>
        </mxCell>
        <mxCell id="cMuiBvV1pdFu6jZ7Mck6-45" value="&lt;font style=&quot;font-size: 10px;&quot;&gt;pipe1_load_e1_w&lt;/font&gt;" style="text;strokeColor=none;align=center;fillColor=none;html=1;verticalAlign=middle;whiteSpace=wrap;rounded=0;" parent="1" vertex="1">
          <mxGeometry x="115" y="186.13" width="80" height="10" as="geometry" />
        </mxCell>
        <mxCell id="cMuiBvV1pdFu6jZ7Mck6-47" value="" style="shape=xor;whiteSpace=wrap;html=1;" parent="1" vertex="1">
          <mxGeometry x="333.25" y="169.63" width="26.75" height="43" as="geometry" />
        </mxCell>
        <mxCell id="cMuiBvV1pdFu6jZ7Mck6-48" value="" style="endArrow=none;html=1;rounded=0;entryX=0.173;entryY=0.225;entryDx=0;entryDy=0;entryPerimeter=0;" parent="1" target="cMuiBvV1pdFu6jZ7Mck6-47" edge="1">
          <mxGeometry width="50" height="50" relative="1" as="geometry">
            <mxPoint x="250" y="179.13" as="sourcePoint" />
            <mxPoint x="330" y="179.13" as="targetPoint" />
          </mxGeometry>
        </mxCell>
        <mxCell id="cMuiBvV1pdFu6jZ7Mck6-49" value="&lt;font style=&quot;font-size: 10px;&quot;&gt;pipe1_mul_e1_w&lt;/font&gt;" style="text;strokeColor=none;align=center;fillColor=none;html=1;verticalAlign=middle;whiteSpace=wrap;rounded=0;" parent="1" vertex="1">
          <mxGeometry x="254" y="166.13" width="80" height="10" as="geometry" />
        </mxCell>
        <mxCell id="cMuiBvV1pdFu6jZ7Mck6-51" value="" style="endArrow=none;html=1;rounded=0;exitX=0.999;exitY=0.467;exitDx=0;exitDy=0;exitPerimeter=0;entryX=0.795;entryY=0.242;entryDx=0;entryDy=0;entryPerimeter=0;" parent="1" target="cMuiBvV1pdFu6jZ7Mck6-38" edge="1" source="cMuiBvV1pdFu6jZ7Mck6-47">
          <mxGeometry width="50" height="50" relative="1" as="geometry">
            <mxPoint x="355.996" y="185.808" as="sourcePoint" />
            <mxPoint x="406.26929" y="90.625" as="targetPoint" />
            <Array as="points">
              <mxPoint x="390" y="190" />
            </Array>
          </mxGeometry>
        </mxCell>
        <mxCell id="cMuiBvV1pdFu6jZ7Mck6-52" value="" style="endArrow=none;html=1;rounded=0;exitX=0.522;exitY=0.004;exitDx=0;exitDy=0;entryX=0.666;entryY=0.997;entryDx=0;entryDy=0;entryPerimeter=0;exitPerimeter=0;" parent="1" source="cMuiBvV1pdFu6jZ7Mck6-38" edge="1" target="cMuiBvV1pdFu6jZ7Mck6-53">
          <mxGeometry width="50" height="50" relative="1" as="geometry">
            <mxPoint x="420" y="79.13" as="sourcePoint" />
            <mxPoint x="460" y="79.13" as="targetPoint" />
          </mxGeometry>
        </mxCell>
        <mxCell id="cMuiBvV1pdFu6jZ7Mck6-53" value="" style="shape=trapezoid;perimeter=trapezoidPerimeter;whiteSpace=wrap;html=1;fixedSize=1;rotation=90;size=13.75;" parent="1" vertex="1">
          <mxGeometry x="424" y="65.13" width="50" height="13.13" as="geometry" />
        </mxCell>
        <mxCell id="cMuiBvV1pdFu6jZ7Mck6-54" value="" style="endArrow=none;html=1;rounded=0;entryX=0.353;entryY=0.985;entryDx=0;entryDy=0;entryPerimeter=0;" parent="1" edge="1">
          <mxGeometry width="50" height="50" relative="1" as="geometry">
            <mxPoint x="404" y="60.93000000000001" as="sourcePoint" />
            <mxPoint x="443" y="60.93000000000001" as="targetPoint" />
          </mxGeometry>
        </mxCell>
        <mxCell id="cMuiBvV1pdFu6jZ7Mck6-55" value="&lt;font style=&quot;font-size: 10px;&quot;&gt;32&#39;b1&lt;/font&gt;" style="text;strokeColor=none;align=center;fillColor=none;html=1;verticalAlign=middle;whiteSpace=wrap;rounded=0;" parent="1" vertex="1">
          <mxGeometry x="406" y="49.93000000000001" width="30" height="10" as="geometry" />
        </mxCell>
        <mxCell id="cMuiBvV1pdFu6jZ7Mck6-56" value="" style="shape=xor;whiteSpace=wrap;html=1;" parent="1" vertex="1">
          <mxGeometry x="305.63" y="305.13" width="30" height="40" as="geometry" />
        </mxCell>
        <mxCell id="cMuiBvV1pdFu6jZ7Mck6-57" value="&lt;font style=&quot;font-size: 10px;&quot;&gt;issue_a_mul_w&lt;/font&gt;" style="text;strokeColor=none;align=center;fillColor=none;html=1;verticalAlign=middle;whiteSpace=wrap;rounded=0;" parent="1" vertex="1">
          <mxGeometry x="222.63" y="302.13" width="80" height="10" as="geometry" />
        </mxCell>
        <mxCell id="cMuiBvV1pdFu6jZ7Mck6-58" value="" style="endArrow=none;html=1;rounded=0;" parent="1" edge="1">
          <mxGeometry width="50" height="50" relative="1" as="geometry">
            <mxPoint x="210.63" y="335.13" as="sourcePoint" />
            <mxPoint x="311.63" y="335.13" as="targetPoint" />
          </mxGeometry>
        </mxCell>
        <mxCell id="cMuiBvV1pdFu6jZ7Mck6-59" value="&lt;font style=&quot;font-size: 10px;&quot;&gt;issue_a_div_w&lt;/font&gt;" style="text;strokeColor=none;align=center;fillColor=none;html=1;verticalAlign=middle;whiteSpace=wrap;rounded=0;" parent="1" vertex="1">
          <mxGeometry x="222.63" y="320.13" width="78" height="10" as="geometry" />
        </mxCell>
        <mxCell id="cMuiBvV1pdFu6jZ7Mck6-60" value="" style="endArrow=none;html=1;rounded=0;entryX=0.175;entryY=0.25;entryDx=0;entryDy=0;entryPerimeter=0;" parent="1" target="cMuiBvV1pdFu6jZ7Mck6-56" edge="1">
          <mxGeometry width="50" height="50" relative="1" as="geometry">
            <mxPoint x="210.63" y="315.13" as="sourcePoint" />
            <mxPoint x="245.63" y="272.13" as="targetPoint" />
          </mxGeometry>
        </mxCell>
        <mxCell id="cMuiBvV1pdFu6jZ7Mck6-61" value="" style="endArrow=none;html=1;rounded=0;exitX=1;exitY=0.5;exitDx=0;exitDy=0;exitPerimeter=0;" parent="1" source="cMuiBvV1pdFu6jZ7Mck6-56" edge="1">
          <mxGeometry width="50" height="50" relative="1" as="geometry">
            <mxPoint x="324.63" y="325.13" as="sourcePoint" />
            <mxPoint x="409.63" y="325.13" as="targetPoint" />
          </mxGeometry>
        </mxCell>
        <mxCell id="cMuiBvV1pdFu6jZ7Mck6-63" value="" style="shape=xor;whiteSpace=wrap;html=1;" parent="1" vertex="1">
          <mxGeometry x="403.63" y="290.13" width="30" height="40" as="geometry" />
        </mxCell>
        <mxCell id="cMuiBvV1pdFu6jZ7Mck6-64" value="" style="endArrow=none;html=1;rounded=0;exitX=1;exitY=0.5;exitDx=0;exitDy=0;exitPerimeter=0;" parent="1" edge="1">
          <mxGeometry width="50" height="50" relative="1" as="geometry">
            <mxPoint x="324.63" y="302.13" as="sourcePoint" />
            <mxPoint x="409.63" y="302.13" as="targetPoint" />
          </mxGeometry>
        </mxCell>
        <mxCell id="cMuiBvV1pdFu6jZ7Mck6-65" value="&lt;font style=&quot;font-size: 10px;&quot;&gt;issue_a_csr_w&lt;/font&gt;" style="text;strokeColor=none;align=center;fillColor=none;html=1;verticalAlign=middle;whiteSpace=wrap;rounded=0;" parent="1" vertex="1">
          <mxGeometry x="325.63" y="290.13" width="78" height="10" as="geometry" />
        </mxCell>
        <mxCell id="cMuiBvV1pdFu6jZ7Mck6-66" value="" style="endArrow=none;html=1;rounded=0;exitX=0.991;exitY=0.541;exitDx=0;exitDy=0;exitPerimeter=0;entryX=0.169;entryY=0.238;entryDx=0;entryDy=0;entryPerimeter=0;" parent="1" source="cMuiBvV1pdFu6jZ7Mck6-40" target="cMuiBvV1pdFu6jZ7Mck6-67" edge="1">
          <mxGeometry width="50" height="50" relative="1" as="geometry">
            <mxPoint x="342" y="246.13" as="sourcePoint" />
            <mxPoint x="410" y="249.13" as="targetPoint" />
          </mxGeometry>
        </mxCell>
        <mxCell id="cMuiBvV1pdFu6jZ7Mck6-67" value="" style="shape=xor;whiteSpace=wrap;html=1;" parent="1" vertex="1">
          <mxGeometry x="403" y="239.49" width="26.75" height="43" as="geometry" />
        </mxCell>
        <mxCell id="cMuiBvV1pdFu6jZ7Mck6-68" value="" style="endArrow=none;html=1;rounded=0;entryX=0.204;entryY=0.706;entryDx=0;entryDy=0;entryPerimeter=0;" parent="1" target="cMuiBvV1pdFu6jZ7Mck6-67" edge="1">
          <mxGeometry width="50" height="50" relative="1" as="geometry">
            <mxPoint x="324" y="270" as="sourcePoint" />
            <mxPoint x="371" y="279.13" as="targetPoint" />
          </mxGeometry>
        </mxCell>
        <mxCell id="cMuiBvV1pdFu6jZ7Mck6-69" value="&lt;font style=&quot;font-size: 10px;&quot;&gt;pipe1_store_e1_w&lt;/font&gt;" style="text;strokeColor=none;align=center;fillColor=none;html=1;verticalAlign=middle;whiteSpace=wrap;rounded=0;" parent="1" vertex="1">
          <mxGeometry x="327" y="255.99" width="80" height="10" as="geometry" />
        </mxCell>
        <mxCell id="cMuiBvV1pdFu6jZ7Mck6-70" value="" style="endArrow=none;html=1;rounded=0;exitX=0.996;exitY=0.476;exitDx=0;exitDy=0;exitPerimeter=0;entryX=-0.013;entryY=0.193;entryDx=0;entryDy=0;entryPerimeter=0;" parent="1" source="cMuiBvV1pdFu6jZ7Mck6-67" target="cMuiBvV1pdFu6jZ7Mck6-73" edge="1">
          <mxGeometry width="50" height="50" relative="1" as="geometry">
            <mxPoint x="463.63" y="304.13" as="sourcePoint" />
            <mxPoint x="520" y="329.13" as="targetPoint" />
            <Array as="points">
              <mxPoint x="440" y="260" />
            </Array>
          </mxGeometry>
        </mxCell>
        <mxCell id="cMuiBvV1pdFu6jZ7Mck6-72" value="" style="endArrow=none;html=1;rounded=0;entryX=-0.014;entryY=0.827;entryDx=0;entryDy=0;entryPerimeter=0;exitX=1.004;exitY=0.523;exitDx=0;exitDy=0;exitPerimeter=0;" parent="1" source="cMuiBvV1pdFu6jZ7Mck6-63" target="cMuiBvV1pdFu6jZ7Mck6-73" edge="1">
          <mxGeometry width="50" height="50" relative="1" as="geometry">
            <mxPoint x="450" y="330" as="sourcePoint" />
            <mxPoint x="504" y="349.13" as="targetPoint" />
            <Array as="points">
              <mxPoint x="460" y="310" />
            </Array>
          </mxGeometry>
        </mxCell>
        <mxCell id="cMuiBvV1pdFu6jZ7Mck6-73" value="" style="shape=or;whiteSpace=wrap;html=1;rotation=-90;" parent="1" vertex="1">
          <mxGeometry x="434.63" y="173.13" width="30" height="32" as="geometry" />
        </mxCell>
        <mxCell id="cMuiBvV1pdFu6jZ7Mck6-75" value="" style="endArrow=none;html=1;rounded=0;exitX=0.847;exitY=0.428;exitDx=0;exitDy=0;entryX=0.992;entryY=0.496;entryDx=0;entryDy=0;entryPerimeter=0;exitPerimeter=0;" parent="1" source="cMuiBvV1pdFu6jZ7Mck6-53" target="cMuiBvV1pdFu6jZ7Mck6-73" edge="1">
          <mxGeometry width="50" height="50" relative="1" as="geometry">
            <mxPoint x="410" y="229.13" as="sourcePoint" />
            <mxPoint x="450" y="170" as="targetPoint" />
            <Array as="points" />
          </mxGeometry>
        </mxCell>
        <mxCell id="cMuiBvV1pdFu6jZ7Mck6-76" value="Score Board" style="rounded=0;whiteSpace=wrap;html=1;" parent="1" vertex="1">
          <mxGeometry x="520" y="285" width="50" height="28" as="geometry" />
        </mxCell>
        <mxCell id="cMuiBvV1pdFu6jZ7Mck6-81" value="" style="endArrow=none;html=1;rounded=0;entryX=0.002;entryY=0.628;entryDx=0;entryDy=0;entryPerimeter=0;" parent="1" edge="1" target="cMuiBvV1pdFu6jZ7Mck6-84">
          <mxGeometry width="50" height="50" relative="1" as="geometry">
            <mxPoint x="480" y="360" as="sourcePoint" />
            <mxPoint x="519.95" y="357.726" as="targetPoint" />
            <Array as="points" />
          </mxGeometry>
        </mxCell>
        <mxCell id="cMuiBvV1pdFu6jZ7Mck6-84" value="Score Board" style="rounded=0;whiteSpace=wrap;html=1;" parent="1" vertex="1">
          <mxGeometry x="520" y="342.13" width="50" height="28" as="geometry" />
        </mxCell>
        <mxCell id="cMuiBvV1pdFu6jZ7Mck6-85" value="Score Board" style="rounded=0;whiteSpace=wrap;html=1;" parent="1" vertex="1">
          <mxGeometry x="520" y="402" width="50" height="28" as="geometry" />
        </mxCell>
        <mxCell id="cMuiBvV1pdFu6jZ7Mck6-87" value="" style="endArrow=none;html=1;rounded=0;" parent="1" edge="1">
          <mxGeometry width="50" height="50" relative="1" as="geometry">
            <mxPoint x="570" y="298" as="sourcePoint" />
            <mxPoint x="590" y="298" as="targetPoint" />
          </mxGeometry>
        </mxCell>
        <mxCell id="cMuiBvV1pdFu6jZ7Mck6-88" value="" style="endArrow=none;html=1;rounded=0;exitX=1.002;exitY=0.633;exitDx=0;exitDy=0;exitPerimeter=0;" parent="1" edge="1" source="cMuiBvV1pdFu6jZ7Mck6-84">
          <mxGeometry width="50" height="50" relative="1" as="geometry">
            <mxPoint x="570" y="358" as="sourcePoint" />
            <mxPoint x="590" y="320" as="targetPoint" />
            <Array as="points">
              <mxPoint x="580" y="360" />
              <mxPoint x="580" y="320" />
            </Array>
          </mxGeometry>
        </mxCell>
        <mxCell id="cMuiBvV1pdFu6jZ7Mck6-89" value="" style="shape=xor;whiteSpace=wrap;html=1;" parent="1" vertex="1">
          <mxGeometry x="585.25" y="287.13" width="26.75" height="43" as="geometry" />
        </mxCell>
        <mxCell id="cMuiBvV1pdFu6jZ7Mck6-90" value="" style="endArrow=none;html=1;rounded=0;exitX=1.005;exitY=0.527;exitDx=0;exitDy=0;exitPerimeter=0;entryX=0.218;entryY=0.313;entryDx=0;entryDy=0;entryPerimeter=0;" parent="1" edge="1" target="cMuiBvV1pdFu6jZ7Mck6-106" source="cMuiBvV1pdFu6jZ7Mck6-89">
          <mxGeometry width="50" height="50" relative="1" as="geometry">
            <mxPoint x="641.75" y="308" as="sourcePoint" />
            <mxPoint x="670" y="308" as="targetPoint" />
          </mxGeometry>
        </mxCell>
        <mxCell id="cMuiBvV1pdFu6jZ7Mck6-92" value="" style="triangle;whiteSpace=wrap;html=1;" parent="1" vertex="1">
          <mxGeometry x="680" y="312.13" width="20" height="13" as="geometry" />
        </mxCell>
        <mxCell id="cMuiBvV1pdFu6jZ7Mck6-93" value="" style="endArrow=none;html=1;rounded=0;exitX=1;exitY=0.5;exitDx=0;exitDy=0;entryX=0;entryY=0.75;entryDx=0;entryDy=0;entryPerimeter=0;" parent="1" edge="1" source="cMuiBvV1pdFu6jZ7Mck6-92">
          <mxGeometry width="50" height="50" relative="1" as="geometry">
            <mxPoint x="711" y="318.63" as="sourcePoint" />
            <mxPoint x="719" y="318.945" as="targetPoint" />
          </mxGeometry>
        </mxCell>
        <mxCell id="cMuiBvV1pdFu6jZ7Mck6-95" value="" style="endArrow=none;html=1;rounded=0;exitX=0.488;exitY=0.007;exitDx=0;exitDy=0;exitPerimeter=0;entryX=-0.008;entryY=0.285;entryDx=0;entryDy=0;entryPerimeter=0;" parent="1" source="cMuiBvV1pdFu6jZ7Mck6-96" target="F5RUWPiLRgRvVY5uWbvm-185" edge="1">
          <mxGeometry width="50" height="50" relative="1" as="geometry">
            <mxPoint x="630" y="238" as="sourcePoint" />
            <mxPoint x="719" y="309.8032" as="targetPoint" />
            <Array as="points">
              <mxPoint x="690" y="240" />
              <mxPoint x="690" y="300" />
            </Array>
          </mxGeometry>
        </mxCell>
        <mxCell id="cMuiBvV1pdFu6jZ7Mck6-96" value="" style="shape=trapezoid;perimeter=trapezoidPerimeter;whiteSpace=wrap;html=1;fixedSize=1;rotation=90;size=13.75;" parent="1" vertex="1">
          <mxGeometry x="595.75" y="234" width="50" height="13.13" as="geometry" />
        </mxCell>
        <mxCell id="cMuiBvV1pdFu6jZ7Mck6-97" value="" style="endArrow=none;html=1;rounded=0;entryX=0.25;entryY=1;entryDx=0;entryDy=0;" parent="1" target="cMuiBvV1pdFu6jZ7Mck6-96" edge="1">
          <mxGeometry width="50" height="50" relative="1" as="geometry">
            <mxPoint x="577" y="228" as="sourcePoint" />
            <mxPoint x="612" y="208" as="targetPoint" />
          </mxGeometry>
        </mxCell>
        <mxCell id="cMuiBvV1pdFu6jZ7Mck6-98" value="" style="endArrow=none;html=1;rounded=0;entryX=0.688;entryY=1.012;entryDx=0;entryDy=0;entryPerimeter=0;" parent="1" edge="1" target="cMuiBvV1pdFu6jZ7Mck6-96">
          <mxGeometry width="50" height="50" relative="1" as="geometry">
            <mxPoint x="550" y="250" as="sourcePoint" />
            <mxPoint x="614" y="248" as="targetPoint" />
          </mxGeometry>
        </mxCell>
        <mxCell id="cMuiBvV1pdFu6jZ7Mck6-99" value="&lt;font style=&quot;font-size: 10px;&quot;&gt;1&#39;b1&lt;/font&gt;" style="text;strokeColor=none;align=center;fillColor=none;html=1;verticalAlign=middle;whiteSpace=wrap;rounded=0;" parent="1" vertex="1">
          <mxGeometry x="595" y="217" width="17" height="10" as="geometry" />
        </mxCell>
        <mxCell id="cMuiBvV1pdFu6jZ7Mck6-100" value="&lt;font style=&quot;font-size: 10px;&quot;&gt;slot1_valid_r&lt;/font&gt;" style="text;strokeColor=none;align=center;fillColor=none;html=1;verticalAlign=middle;whiteSpace=wrap;rounded=0;" parent="1" vertex="1">
          <mxGeometry x="557" y="237.57" width="55" height="10" as="geometry" />
        </mxCell>
        <mxCell id="cMuiBvV1pdFu6jZ7Mck6-101" value="&lt;font style=&quot;font-size: 10px;&quot;&gt;slot0_valid_r&lt;/font&gt;" style="text;strokeColor=none;align=center;fillColor=none;html=1;verticalAlign=middle;whiteSpace=wrap;rounded=0;" parent="1" vertex="1">
          <mxGeometry x="543.75" y="271" width="55" height="10" as="geometry" />
        </mxCell>
        <mxCell id="cMuiBvV1pdFu6jZ7Mck6-103" value="" style="endArrow=none;html=1;rounded=0;entryX=0.892;entryY=0.566;entryDx=0;entryDy=0;entryPerimeter=0;" parent="1" target="cMuiBvV1pdFu6jZ7Mck6-96" edge="1">
          <mxGeometry width="50" height="50" relative="1" as="geometry">
            <mxPoint x="600" y="278" as="sourcePoint" />
            <mxPoint x="653.38" y="228" as="targetPoint" />
            <Array as="points">
              <mxPoint x="620" y="278" />
            </Array>
          </mxGeometry>
        </mxCell>
        <mxCell id="cMuiBvV1pdFu6jZ7Mck6-105" value="" style="endArrow=none;html=1;rounded=0;exitX=1;exitY=0.5;exitDx=0;exitDy=0;entryX=0.174;entryY=0.785;entryDx=0;entryDy=0;entryPerimeter=0;" parent="1" source="cMuiBvV1pdFu6jZ7Mck6-85" edge="1" target="cMuiBvV1pdFu6jZ7Mck6-106">
          <mxGeometry width="50" height="50" relative="1" as="geometry">
            <mxPoint x="630" y="358" as="sourcePoint" />
            <mxPoint x="670" y="328" as="targetPoint" />
            <Array as="points">
              <mxPoint x="610" y="416" />
              <mxPoint x="610" y="330" />
            </Array>
          </mxGeometry>
        </mxCell>
        <mxCell id="cMuiBvV1pdFu6jZ7Mck6-106" value="" style="shape=xor;whiteSpace=wrap;html=1;" parent="1" vertex="1">
          <mxGeometry x="636" y="296.26" width="26.75" height="43" as="geometry" />
        </mxCell>
        <mxCell id="cMuiBvV1pdFu6jZ7Mck6-107" value="" style="endArrow=none;html=1;rounded=0;" parent="1" edge="1">
          <mxGeometry width="50" height="50" relative="1" as="geometry">
            <mxPoint x="662.75" y="318.13" as="sourcePoint" />
            <mxPoint x="680" y="318" as="targetPoint" />
          </mxGeometry>
        </mxCell>
        <mxCell id="F5RUWPiLRgRvVY5uWbvm-1" value="" style="endArrow=none;html=1;rounded=0;entryX=0.654;entryY=1.001;entryDx=0;entryDy=0;entryPerimeter=0;exitX=0.648;exitY=0.026;exitDx=0;exitDy=0;exitPerimeter=0;" edge="1" parent="1" source="cMuiBvV1pdFu6jZ7Mck6-53" target="F5RUWPiLRgRvVY5uWbvm-2">
          <mxGeometry width="50" height="50" relative="1" as="geometry">
            <mxPoint x="500" y="298" as="sourcePoint" />
            <mxPoint x="630" y="138" as="targetPoint" />
            <Array as="points" />
          </mxGeometry>
        </mxCell>
        <mxCell id="F5RUWPiLRgRvVY5uWbvm-2" value="" style="shape=trapezoid;perimeter=trapezoidPerimeter;whiteSpace=wrap;html=1;fixedSize=1;rotation=90;size=13.75;" vertex="1" parent="1">
          <mxGeometry x="575.75" y="65" width="50" height="13.13" as="geometry" />
        </mxCell>
        <mxCell id="F5RUWPiLRgRvVY5uWbvm-3" value="" style="endArrow=none;html=1;rounded=0;entryX=0.942;entryY=0.998;entryDx=0;entryDy=0;entryPerimeter=0;" edge="1" parent="1" target="F5RUWPiLRgRvVY5uWbvm-4">
          <mxGeometry width="50" height="50" relative="1" as="geometry">
            <mxPoint x="554" y="65" as="sourcePoint" />
            <mxPoint x="593.5" y="65" as="targetPoint" />
          </mxGeometry>
        </mxCell>
        <mxCell id="F5RUWPiLRgRvVY5uWbvm-4" value="&lt;font style=&quot;font-size: 10px;&quot;&gt;32&#39;b1&lt;/font&gt;" style="text;strokeColor=none;align=center;fillColor=none;html=1;verticalAlign=middle;whiteSpace=wrap;rounded=0;" vertex="1" parent="1">
          <mxGeometry x="566" y="55" width="30" height="10" as="geometry" />
        </mxCell>
        <mxCell id="F5RUWPiLRgRvVY5uWbvm-5" value="" style="endArrow=none;html=1;rounded=0;entryX=0.25;entryY=0.5;entryDx=0;entryDy=0;entryPerimeter=0;" edge="1" parent="1" target="F5RUWPiLRgRvVY5uWbvm-7">
          <mxGeometry width="50" height="50" relative="1" as="geometry">
            <mxPoint x="490" y="150" as="sourcePoint" />
            <mxPoint x="614.75" y="152" as="targetPoint" />
          </mxGeometry>
        </mxCell>
        <mxCell id="F5RUWPiLRgRvVY5uWbvm-6" value="&lt;font style=&quot;font-size: 10px;&quot;&gt;issue_a_rd_idx_w[4:0]&lt;/font&gt;" style="text;strokeColor=none;align=center;fillColor=none;html=1;verticalAlign=middle;whiteSpace=wrap;rounded=0;" vertex="1" parent="1">
          <mxGeometry x="503.75" y="137" width="95.5" height="10" as="geometry" />
        </mxCell>
        <mxCell id="F5RUWPiLRgRvVY5uWbvm-7" value="" style="shape=xor;whiteSpace=wrap;html=1;" vertex="1" parent="1">
          <mxGeometry x="604.25" y="138" width="21.5" height="24.5" as="geometry" />
        </mxCell>
        <mxCell id="F5RUWPiLRgRvVY5uWbvm-9" value="" style="endArrow=none;html=1;rounded=0;exitX=1;exitY=0.5;exitDx=0;exitDy=0;exitPerimeter=0;" edge="1" parent="1" source="F5RUWPiLRgRvVY5uWbvm-7">
          <mxGeometry width="50" height="50" relative="1" as="geometry">
            <mxPoint x="644.5" y="152.17999999999995" as="sourcePoint" />
            <mxPoint x="640" y="150" as="targetPoint" />
          </mxGeometry>
        </mxCell>
        <mxCell id="F5RUWPiLRgRvVY5uWbvm-11" value="" style="shape=or;whiteSpace=wrap;html=1;" vertex="1" parent="1">
          <mxGeometry x="640" y="144" width="20" height="30" as="geometry" />
        </mxCell>
        <mxCell id="F5RUWPiLRgRvVY5uWbvm-12" value="" style="endArrow=none;html=1;rounded=0;" edge="1" parent="1">
          <mxGeometry width="50" height="50" relative="1" as="geometry">
            <mxPoint x="490" y="190" as="sourcePoint" />
            <mxPoint x="640" y="170" as="targetPoint" />
            <Array as="points">
              <mxPoint x="600" y="190" />
              <mxPoint x="600" y="170" />
            </Array>
          </mxGeometry>
        </mxCell>
        <mxCell id="F5RUWPiLRgRvVY5uWbvm-13" value="&lt;font style=&quot;font-size: 10px;&quot;&gt;issue_a_sb_alloc_w&lt;/font&gt;" style="text;strokeColor=none;align=center;fillColor=none;html=1;verticalAlign=middle;whiteSpace=wrap;rounded=0;" vertex="1" parent="1">
          <mxGeometry x="492.07" y="176.13" width="92.37" height="10" as="geometry" />
        </mxCell>
        <mxCell id="F5RUWPiLRgRvVY5uWbvm-14" value="" style="endArrow=none;html=1;rounded=0;entryX=0.708;entryY=0.993;entryDx=0;entryDy=0;entryPerimeter=0;" edge="1" parent="1" target="F5RUWPiLRgRvVY5uWbvm-15">
          <mxGeometry width="50" height="50" relative="1" as="geometry">
            <mxPoint x="480" y="108" as="sourcePoint" />
            <mxPoint x="680" y="85" as="targetPoint" />
            <Array as="points">
              <mxPoint x="640" y="108" />
              <mxPoint x="640" y="85" />
            </Array>
          </mxGeometry>
        </mxCell>
        <mxCell id="F5RUWPiLRgRvVY5uWbvm-15" value="" style="shape=trapezoid;perimeter=trapezoidPerimeter;whiteSpace=wrap;html=1;fixedSize=1;rotation=90;size=13.75;" vertex="1" parent="1">
          <mxGeometry x="646" y="68" width="50" height="13.13" as="geometry" />
        </mxCell>
        <mxCell id="F5RUWPiLRgRvVY5uWbvm-16" value="" style="endArrow=none;html=1;rounded=0;exitX=0.37;exitY=-0.002;exitDx=0;exitDy=0;exitPerimeter=0;" edge="1" parent="1" source="F5RUWPiLRgRvVY5uWbvm-2">
          <mxGeometry width="50" height="50" relative="1" as="geometry">
            <mxPoint x="604" y="65" as="sourcePoint" />
            <mxPoint x="664" y="65" as="targetPoint" />
          </mxGeometry>
        </mxCell>
        <mxCell id="F5RUWPiLRgRvVY5uWbvm-17" value="" style="endArrow=none;html=1;rounded=0;entryX=0.885;entryY=0.573;entryDx=0;entryDy=0;exitX=0.999;exitY=0.532;exitDx=0;exitDy=0;exitPerimeter=0;entryPerimeter=0;" edge="1" parent="1" source="F5RUWPiLRgRvVY5uWbvm-11" target="F5RUWPiLRgRvVY5uWbvm-15">
          <mxGeometry width="50" height="50" relative="1" as="geometry">
            <mxPoint x="697" y="158.03999999999996" as="sourcePoint" />
            <mxPoint x="729.5" y="157.86" as="targetPoint" />
            <Array as="points">
              <mxPoint x="670" y="160" />
            </Array>
          </mxGeometry>
        </mxCell>
        <mxCell id="F5RUWPiLRgRvVY5uWbvm-18" value="" style="shape=trapezoid;perimeter=trapezoidPerimeter;whiteSpace=wrap;html=1;fixedSize=1;rotation=90;size=13.75;" vertex="1" parent="1">
          <mxGeometry x="724" y="68" width="50" height="13.13" as="geometry" />
        </mxCell>
        <mxCell id="F5RUWPiLRgRvVY5uWbvm-20" value="" style="endArrow=none;html=1;rounded=0;entryX=0.808;entryY=0.997;entryDx=0;entryDy=0;entryPerimeter=0;" edge="1" parent="1" target="F5RUWPiLRgRvVY5uWbvm-18">
          <mxGeometry width="50" height="50" relative="1" as="geometry">
            <mxPoint x="640" y="108" as="sourcePoint" />
            <mxPoint x="800.185" y="87.06499999999997" as="targetPoint" />
            <Array as="points">
              <mxPoint x="690" y="108" />
              <mxPoint x="690" y="90" />
            </Array>
          </mxGeometry>
        </mxCell>
        <mxCell id="F5RUWPiLRgRvVY5uWbvm-21" value="" style="endArrow=none;html=1;rounded=0;exitX=0.366;exitY=-0.002;exitDx=0;exitDy=0;exitPerimeter=0;entryX=0.367;entryY=1.001;entryDx=0;entryDy=0;entryPerimeter=0;" edge="1" parent="1" source="F5RUWPiLRgRvVY5uWbvm-15" target="F5RUWPiLRgRvVY5uWbvm-18">
          <mxGeometry width="50" height="50" relative="1" as="geometry">
            <mxPoint x="691.75" y="67.87" as="sourcePoint" />
            <mxPoint x="748.75" y="67.87" as="targetPoint" />
          </mxGeometry>
        </mxCell>
        <mxCell id="F5RUWPiLRgRvVY5uWbvm-22" value="" style="endArrow=none;html=1;rounded=0;entryX=0.837;entryY=0.403;entryDx=0;entryDy=0;entryPerimeter=0;exitX=1.001;exitY=0.583;exitDx=0;exitDy=0;exitPerimeter=0;" edge="1" parent="1" source="F5RUWPiLRgRvVY5uWbvm-185" target="F5RUWPiLRgRvVY5uWbvm-18">
          <mxGeometry width="50" height="50" relative="1" as="geometry">
            <mxPoint x="739" y="313.63" as="sourcePoint" />
            <mxPoint x="810" y="118" as="targetPoint" />
            <Array as="points">
              <mxPoint x="750" y="310" />
            </Array>
          </mxGeometry>
        </mxCell>
        <mxCell id="F5RUWPiLRgRvVY5uWbvm-23" value="" style="endArrow=none;html=1;rounded=0;entryX=0.384;entryY=0.999;entryDx=0;entryDy=0;entryPerimeter=0;" edge="1" parent="1" target="F5RUWPiLRgRvVY5uWbvm-25">
          <mxGeometry width="50" height="50" relative="1" as="geometry">
            <mxPoint x="690" y="108" as="sourcePoint" />
            <mxPoint x="790" y="70" as="targetPoint" />
            <Array as="points">
              <mxPoint x="780" y="108" />
              <mxPoint x="780" y="70" />
            </Array>
          </mxGeometry>
        </mxCell>
        <mxCell id="F5RUWPiLRgRvVY5uWbvm-24" value="" style="endArrow=none;html=1;rounded=0;exitX=0.57;exitY=0.02;exitDx=0;exitDy=0;exitPerimeter=0;entryX=0.543;entryY=0.991;entryDx=0;entryDy=0;entryPerimeter=0;" edge="1" parent="1" source="F5RUWPiLRgRvVY5uWbvm-18" target="F5RUWPiLRgRvVY5uWbvm-25">
          <mxGeometry width="50" height="50" relative="1" as="geometry">
            <mxPoint x="840" y="115" as="sourcePoint" />
            <mxPoint x="780" y="78" as="targetPoint" />
          </mxGeometry>
        </mxCell>
        <mxCell id="F5RUWPiLRgRvVY5uWbvm-25" value="" style="shape=trapezoid;perimeter=trapezoidPerimeter;whiteSpace=wrap;html=1;fixedSize=1;rotation=90;size=13.75;" vertex="1" parent="1">
          <mxGeometry x="774" y="69.26" width="50" height="13.13" as="geometry" />
        </mxCell>
        <mxCell id="F5RUWPiLRgRvVY5uWbvm-27" value="" style="endArrow=none;html=1;rounded=0;" edge="1" parent="1">
          <mxGeometry width="50" height="50" relative="1" as="geometry">
            <mxPoint x="480" y="420" as="sourcePoint" />
            <mxPoint x="480" y="80" as="targetPoint" />
            <Array as="points">
              <mxPoint x="520" y="420" />
              <mxPoint x="480" y="420" />
            </Array>
          </mxGeometry>
        </mxCell>
        <mxCell id="F5RUWPiLRgRvVY5uWbvm-72" value="" style="endArrow=none;html=1;rounded=0;entryX=0.002;entryY=0.628;entryDx=0;entryDy=0;entryPerimeter=0;" edge="1" parent="1">
          <mxGeometry width="50" height="50" relative="1" as="geometry">
            <mxPoint x="480" y="300.13" as="sourcePoint" />
            <mxPoint x="520" y="300.13" as="targetPoint" />
            <Array as="points" />
          </mxGeometry>
        </mxCell>
        <mxCell id="F5RUWPiLRgRvVY5uWbvm-75" value="" style="endArrow=none;html=1;rounded=0;" edge="1" parent="1">
          <mxGeometry width="50" height="50" relative="1" as="geometry">
            <mxPoint x="500" y="150" as="sourcePoint" />
            <mxPoint x="600" y="90" as="targetPoint" />
            <Array as="points">
              <mxPoint x="500" y="120" />
              <mxPoint x="600" y="120" />
            </Array>
          </mxGeometry>
        </mxCell>
        <mxCell id="F5RUWPiLRgRvVY5uWbvm-76" value="" style="shape=or;whiteSpace=wrap;html=1;" vertex="1" parent="1">
          <mxGeometry x="131" y="473.68999999999994" width="24" height="30" as="geometry" />
        </mxCell>
        <mxCell id="F5RUWPiLRgRvVY5uWbvm-77" value="" style="endArrow=none;html=1;rounded=0;" edge="1" parent="1">
          <mxGeometry width="50" height="50" relative="1" as="geometry">
            <mxPoint x="31" y="478.68999999999994" as="sourcePoint" />
            <mxPoint x="131" y="478.68999999999994" as="targetPoint" />
          </mxGeometry>
        </mxCell>
        <mxCell id="F5RUWPiLRgRvVY5uWbvm-78" value="&lt;font style=&quot;font-size: 10px;&quot;&gt;div_opcode_valid_o&lt;/font&gt;" style="text;strokeColor=none;align=center;fillColor=none;html=1;verticalAlign=middle;whiteSpace=wrap;rounded=0;" vertex="1" parent="1">
          <mxGeometry x="35" y="466.68999999999994" width="93" height="10" as="geometry" />
        </mxCell>
        <mxCell id="F5RUWPiLRgRvVY5uWbvm-79" value="" style="endArrow=none;html=1;rounded=0;entryX=0;entryY=0.75;entryDx=0;entryDy=0;entryPerimeter=0;" edge="1" parent="1" target="F5RUWPiLRgRvVY5uWbvm-76">
          <mxGeometry width="50" height="50" relative="1" as="geometry">
            <mxPoint x="31" y="496.68999999999994" as="sourcePoint" />
            <mxPoint x="87" y="476.68999999999994" as="targetPoint" />
          </mxGeometry>
        </mxCell>
        <mxCell id="F5RUWPiLRgRvVY5uWbvm-80" value="&lt;font style=&quot;font-size: 10px;&quot;&gt;issue_a_div_w&lt;/font&gt;" style="text;strokeColor=none;align=center;fillColor=none;html=1;verticalAlign=middle;whiteSpace=wrap;rounded=0;" vertex="1" parent="1">
          <mxGeometry x="57" y="483.68999999999994" width="73" height="10" as="geometry" />
        </mxCell>
        <mxCell id="F5RUWPiLRgRvVY5uWbvm-81" value="" style="shape=trapezoid;perimeter=trapezoidPerimeter;whiteSpace=wrap;html=1;fixedSize=1;rotation=90;size=8.25;" vertex="1" parent="1">
          <mxGeometry x="181" y="462.13" width="54" height="14.5" as="geometry" />
        </mxCell>
        <mxCell id="F5RUWPiLRgRvVY5uWbvm-82" value="" style="endArrow=none;html=1;rounded=0;" edge="1" parent="1">
          <mxGeometry width="50" height="50" relative="1" as="geometry">
            <mxPoint x="163" y="456.13" as="sourcePoint" />
            <mxPoint x="201" y="455.85" as="targetPoint" />
          </mxGeometry>
        </mxCell>
        <mxCell id="F5RUWPiLRgRvVY5uWbvm-83" value="&lt;font style=&quot;font-size: 10px;&quot;&gt;1&#39;b0&lt;/font&gt;" style="text;strokeColor=none;align=center;fillColor=none;html=1;verticalAlign=middle;whiteSpace=wrap;rounded=0;" vertex="1" parent="1">
          <mxGeometry x="177" y="443.13" width="20" height="10" as="geometry" />
        </mxCell>
        <mxCell id="F5RUWPiLRgRvVY5uWbvm-84" value="" style="endArrow=none;html=1;rounded=0;exitX=0.996;exitY=0.441;exitDx=0;exitDy=0;exitPerimeter=0;" edge="1" parent="1" source="F5RUWPiLRgRvVY5uWbvm-76">
          <mxGeometry width="50" height="50" relative="1" as="geometry">
            <mxPoint x="155" y="486.13" as="sourcePoint" />
            <mxPoint x="201" y="486.68999999999994" as="targetPoint" />
          </mxGeometry>
        </mxCell>
        <mxCell id="F5RUWPiLRgRvVY5uWbvm-86" value="" style="endArrow=none;html=1;rounded=0;entryX=1;entryY=0.25;entryDx=0;entryDy=0;" edge="1" parent="1" target="F5RUWPiLRgRvVY5uWbvm-81">
          <mxGeometry width="50" height="50" relative="1" as="geometry">
            <mxPoint x="211" y="506.68999999999994" as="sourcePoint" />
            <mxPoint x="211" y="496.68999999999994" as="targetPoint" />
          </mxGeometry>
        </mxCell>
        <mxCell id="F5RUWPiLRgRvVY5uWbvm-87" value="&lt;font style=&quot;font-size: 10px;&quot;&gt;squash_w&lt;/font&gt;" style="text;strokeColor=none;align=center;fillColor=none;html=1;verticalAlign=middle;whiteSpace=wrap;rounded=0;" vertex="1" parent="1">
          <mxGeometry x="182" y="506.68999999999994" width="55" height="10" as="geometry" />
        </mxCell>
        <mxCell id="F5RUWPiLRgRvVY5uWbvm-88" value="" style="endArrow=none;html=1;rounded=0;exitX=0.45;exitY=-0.008;exitDx=0;exitDy=0;exitPerimeter=0;entryX=0.012;entryY=0.38;entryDx=0;entryDy=0;entryPerimeter=0;" edge="1" parent="1" source="F5RUWPiLRgRvVY5uWbvm-81" target="F5RUWPiLRgRvVY5uWbvm-89">
          <mxGeometry width="50" height="50" relative="1" as="geometry">
            <mxPoint x="214.63" y="466.68999999999994" as="sourcePoint" />
            <mxPoint x="271" y="466.68999999999994" as="targetPoint" />
          </mxGeometry>
        </mxCell>
        <mxCell id="F5RUWPiLRgRvVY5uWbvm-89" value="D" style="rounded=1;whiteSpace=wrap;html=1;" vertex="1" parent="1">
          <mxGeometry x="251.5" y="449.90999999999997" width="31" height="43.56" as="geometry" />
        </mxCell>
        <mxCell id="F5RUWPiLRgRvVY5uWbvm-99" value="" style="endArrow=none;html=1;rounded=0;entryX=0.12;entryY=0.142;entryDx=0;entryDy=0;entryPerimeter=0;exitX=0.995;exitY=0.537;exitDx=0;exitDy=0;exitPerimeter=0;" edge="1" parent="1" target="F5RUWPiLRgRvVY5uWbvm-148" source="F5RUWPiLRgRvVY5uWbvm-89">
          <mxGeometry width="50" height="50" relative="1" as="geometry">
            <mxPoint x="306" y="472.68999999999994" as="sourcePoint" />
            <mxPoint x="363.9200000000001" y="473.67999999999984" as="targetPoint" />
            <Array as="points">
              <mxPoint x="380" y="472" />
              <mxPoint x="380" y="490" />
            </Array>
          </mxGeometry>
        </mxCell>
        <mxCell id="F5RUWPiLRgRvVY5uWbvm-101" value="&lt;font style=&quot;font-size: 10px;&quot;&gt;csr_pending_q&lt;/font&gt;" style="text;strokeColor=none;align=center;fillColor=none;html=1;verticalAlign=middle;whiteSpace=wrap;rounded=0;" vertex="1" parent="1">
          <mxGeometry x="296.13" y="459.68999999999994" width="67.37" height="10" as="geometry" />
        </mxCell>
        <mxCell id="F5RUWPiLRgRvVY5uWbvm-124" value="" style="shape=or;whiteSpace=wrap;html=1;" vertex="1" parent="1">
          <mxGeometry x="133" y="633.56" width="24" height="30" as="geometry" />
        </mxCell>
        <mxCell id="F5RUWPiLRgRvVY5uWbvm-125" value="" style="endArrow=none;html=1;rounded=0;" edge="1" parent="1">
          <mxGeometry width="50" height="50" relative="1" as="geometry">
            <mxPoint x="33" y="638.56" as="sourcePoint" />
            <mxPoint x="133" y="638.56" as="targetPoint" />
          </mxGeometry>
        </mxCell>
        <mxCell id="F5RUWPiLRgRvVY5uWbvm-126" value="&lt;font style=&quot;font-size: 10px;&quot;&gt;csr_opcode_valid_o&lt;/font&gt;" style="text;strokeColor=none;align=center;fillColor=none;html=1;verticalAlign=middle;whiteSpace=wrap;rounded=0;" vertex="1" parent="1">
          <mxGeometry x="37" y="626.56" width="93" height="10" as="geometry" />
        </mxCell>
        <mxCell id="F5RUWPiLRgRvVY5uWbvm-127" value="" style="endArrow=none;html=1;rounded=0;entryX=0;entryY=0.75;entryDx=0;entryDy=0;entryPerimeter=0;" edge="1" parent="1" target="F5RUWPiLRgRvVY5uWbvm-124">
          <mxGeometry width="50" height="50" relative="1" as="geometry">
            <mxPoint x="33" y="656.56" as="sourcePoint" />
            <mxPoint x="89" y="636.56" as="targetPoint" />
          </mxGeometry>
        </mxCell>
        <mxCell id="F5RUWPiLRgRvVY5uWbvm-128" value="&lt;font style=&quot;font-size: 10px;&quot;&gt;issue_a_csr_w&lt;/font&gt;" style="text;strokeColor=none;align=center;fillColor=none;html=1;verticalAlign=middle;whiteSpace=wrap;rounded=0;" vertex="1" parent="1">
          <mxGeometry x="59" y="643.56" width="73" height="10" as="geometry" />
        </mxCell>
        <mxCell id="F5RUWPiLRgRvVY5uWbvm-129" value="" style="shape=trapezoid;perimeter=trapezoidPerimeter;whiteSpace=wrap;html=1;fixedSize=1;rotation=90;size=8.25;" vertex="1" parent="1">
          <mxGeometry x="183" y="622" width="54" height="14.5" as="geometry" />
        </mxCell>
        <mxCell id="F5RUWPiLRgRvVY5uWbvm-130" value="" style="endArrow=none;html=1;rounded=0;" edge="1" parent="1">
          <mxGeometry width="50" height="50" relative="1" as="geometry">
            <mxPoint x="165" y="616" as="sourcePoint" />
            <mxPoint x="203" y="615.72" as="targetPoint" />
          </mxGeometry>
        </mxCell>
        <mxCell id="F5RUWPiLRgRvVY5uWbvm-131" value="&lt;font style=&quot;font-size: 10px;&quot;&gt;1&#39;b0&lt;/font&gt;" style="text;strokeColor=none;align=center;fillColor=none;html=1;verticalAlign=middle;whiteSpace=wrap;rounded=0;" vertex="1" parent="1">
          <mxGeometry x="179" y="603" width="20" height="10" as="geometry" />
        </mxCell>
        <mxCell id="F5RUWPiLRgRvVY5uWbvm-132" value="" style="endArrow=none;html=1;rounded=0;exitX=0.996;exitY=0.441;exitDx=0;exitDy=0;exitPerimeter=0;" edge="1" parent="1" source="F5RUWPiLRgRvVY5uWbvm-124">
          <mxGeometry width="50" height="50" relative="1" as="geometry">
            <mxPoint x="157" y="646" as="sourcePoint" />
            <mxPoint x="203" y="646.56" as="targetPoint" />
          </mxGeometry>
        </mxCell>
        <mxCell id="F5RUWPiLRgRvVY5uWbvm-133" value="" style="endArrow=none;html=1;rounded=0;entryX=1;entryY=0.25;entryDx=0;entryDy=0;" edge="1" parent="1" target="F5RUWPiLRgRvVY5uWbvm-129">
          <mxGeometry width="50" height="50" relative="1" as="geometry">
            <mxPoint x="213" y="666.56" as="sourcePoint" />
            <mxPoint x="213" y="656.56" as="targetPoint" />
          </mxGeometry>
        </mxCell>
        <mxCell id="F5RUWPiLRgRvVY5uWbvm-134" value="&lt;font style=&quot;font-size: 10px;&quot;&gt;squash_w&lt;/font&gt;" style="text;strokeColor=none;align=center;fillColor=none;html=1;verticalAlign=middle;whiteSpace=wrap;rounded=0;" vertex="1" parent="1">
          <mxGeometry x="184" y="666.56" width="55" height="10" as="geometry" />
        </mxCell>
        <mxCell id="F5RUWPiLRgRvVY5uWbvm-135" value="" style="endArrow=none;html=1;rounded=0;exitX=0.45;exitY=-0.008;exitDx=0;exitDy=0;exitPerimeter=0;entryX=0.012;entryY=0.38;entryDx=0;entryDy=0;entryPerimeter=0;" edge="1" parent="1" source="F5RUWPiLRgRvVY5uWbvm-129" target="F5RUWPiLRgRvVY5uWbvm-136">
          <mxGeometry width="50" height="50" relative="1" as="geometry">
            <mxPoint x="216.63" y="626.56" as="sourcePoint" />
            <mxPoint x="273" y="626.56" as="targetPoint" />
          </mxGeometry>
        </mxCell>
        <mxCell id="F5RUWPiLRgRvVY5uWbvm-136" value="D" style="rounded=1;whiteSpace=wrap;html=1;" vertex="1" parent="1">
          <mxGeometry x="253.5" y="609.78" width="31" height="43.56" as="geometry" />
        </mxCell>
        <mxCell id="F5RUWPiLRgRvVY5uWbvm-137" value="" style="shape=xor;whiteSpace=wrap;html=1;" vertex="1" parent="1">
          <mxGeometry x="258.5" y="538" width="20" height="30" as="geometry" />
        </mxCell>
        <mxCell id="F5RUWPiLRgRvVY5uWbvm-138" value="" style="endArrow=none;html=1;rounded=0;" edge="1" parent="1">
          <mxGeometry width="50" height="50" relative="1" as="geometry">
            <mxPoint x="203.5" y="543" as="sourcePoint" />
            <mxPoint x="261" y="542.9999999999999" as="targetPoint" />
          </mxGeometry>
        </mxCell>
        <mxCell id="F5RUWPiLRgRvVY5uWbvm-139" value="&lt;font style=&quot;font-size: 10px;&quot;&gt;lsu_stall_i&lt;/font&gt;" style="text;strokeColor=none;align=center;fillColor=none;html=1;verticalAlign=middle;whiteSpace=wrap;rounded=0;" vertex="1" parent="1">
          <mxGeometry x="207" y="530" width="48.5" height="10" as="geometry" />
        </mxCell>
        <mxCell id="F5RUWPiLRgRvVY5uWbvm-140" value="" style="endArrow=none;html=1;rounded=0;entryX=0.146;entryY=0.833;entryDx=0;entryDy=0;entryPerimeter=0;" edge="1" parent="1" target="F5RUWPiLRgRvVY5uWbvm-137">
          <mxGeometry width="50" height="50" relative="1" as="geometry">
            <mxPoint x="203.5" y="563" as="sourcePoint" />
            <mxPoint x="261.5" y="562.44" as="targetPoint" />
          </mxGeometry>
        </mxCell>
        <mxCell id="F5RUWPiLRgRvVY5uWbvm-141" value="&lt;font style=&quot;font-size: 10px;&quot;&gt;mul_hold_o&lt;/font&gt;" style="text;strokeColor=none;align=center;fillColor=none;html=1;verticalAlign=middle;whiteSpace=wrap;rounded=0;" vertex="1" parent="1">
          <mxGeometry x="199" y="550" width="56.5" height="10" as="geometry" />
        </mxCell>
        <mxCell id="F5RUWPiLRgRvVY5uWbvm-142" value="" style="shape=xor;whiteSpace=wrap;html=1;" vertex="1" parent="1">
          <mxGeometry x="363" y="608.56" width="20" height="30" as="geometry" />
        </mxCell>
        <mxCell id="F5RUWPiLRgRvVY5uWbvm-143" value="" style="endArrow=none;html=1;rounded=0;exitX=1;exitY=0.5;exitDx=0;exitDy=0;exitPerimeter=0;" edge="1" parent="1" source="F5RUWPiLRgRvVY5uWbvm-137">
          <mxGeometry width="50" height="50" relative="1" as="geometry">
            <mxPoint x="308" y="612.56" as="sourcePoint" />
            <mxPoint x="365.5" y="612.56" as="targetPoint" />
            <Array as="points">
              <mxPoint x="311.5" y="553" />
              <mxPoint x="311.5" y="613" />
            </Array>
          </mxGeometry>
        </mxCell>
        <mxCell id="F5RUWPiLRgRvVY5uWbvm-144" value="" style="endArrow=none;html=1;rounded=0;entryX=0.146;entryY=0.833;entryDx=0;entryDy=0;entryPerimeter=0;exitX=0.995;exitY=0.537;exitDx=0;exitDy=0;exitPerimeter=0;" edge="1" parent="1" source="F5RUWPiLRgRvVY5uWbvm-136" target="F5RUWPiLRgRvVY5uWbvm-142">
          <mxGeometry width="50" height="50" relative="1" as="geometry">
            <mxPoint x="308" y="632.56" as="sourcePoint" />
            <mxPoint x="366" y="632" as="targetPoint" />
          </mxGeometry>
        </mxCell>
        <mxCell id="F5RUWPiLRgRvVY5uWbvm-145" value="&lt;font style=&quot;font-size: 10px;&quot;&gt;div_pending_q&lt;/font&gt;" style="text;strokeColor=none;align=center;fillColor=none;html=1;verticalAlign=middle;whiteSpace=wrap;rounded=0;" vertex="1" parent="1">
          <mxGeometry x="298.13" y="619.56" width="67.37" height="10" as="geometry" />
        </mxCell>
        <mxCell id="F5RUWPiLRgRvVY5uWbvm-148" value="" style="shape=xor;whiteSpace=wrap;html=1;" vertex="1" parent="1">
          <mxGeometry x="416" y="485.68999999999994" width="20" height="30" as="geometry" />
        </mxCell>
        <mxCell id="F5RUWPiLRgRvVY5uWbvm-149" value="" style="endArrow=none;html=1;rounded=0;entryX=0.163;entryY=0.809;entryDx=0;entryDy=0;entryPerimeter=0;exitX=0.967;exitY=0.378;exitDx=0;exitDy=0;exitPerimeter=0;" edge="1" parent="1" source="F5RUWPiLRgRvVY5uWbvm-142" target="F5RUWPiLRgRvVY5uWbvm-148">
          <mxGeometry width="50" height="50" relative="1" as="geometry">
            <mxPoint x="383" y="626.56" as="sourcePoint" />
            <mxPoint x="390" y="510" as="targetPoint" />
            <Array as="points">
              <mxPoint x="390" y="620" />
              <mxPoint x="390" y="510" />
            </Array>
          </mxGeometry>
        </mxCell>
        <mxCell id="F5RUWPiLRgRvVY5uWbvm-150" value="" style="endArrow=none;html=1;rounded=0;exitX=1;exitY=0.5;exitDx=0;exitDy=0;exitPerimeter=0;entryX=0.846;entryY=0.43;entryDx=0;entryDy=0;entryPerimeter=0;" edge="1" parent="1" source="F5RUWPiLRgRvVY5uWbvm-148" target="F5RUWPiLRgRvVY5uWbvm-25">
          <mxGeometry width="50" height="50" relative="1" as="geometry">
            <mxPoint x="460" y="490" as="sourcePoint" />
            <mxPoint x="510" y="440" as="targetPoint" />
            <Array as="points">
              <mxPoint x="450" y="500" />
              <mxPoint x="450" y="440" />
              <mxPoint x="770" y="440" />
              <mxPoint x="770" y="120" />
              <mxPoint x="800" y="120" />
            </Array>
          </mxGeometry>
        </mxCell>
        <mxCell id="F5RUWPiLRgRvVY5uWbvm-151" value="" style="endArrow=none;html=1;rounded=0;exitX=0.588;exitY=0.001;exitDx=0;exitDy=0;exitPerimeter=0;entryX=0;entryY=0.5;entryDx=0;entryDy=0;" edge="1" parent="1" source="F5RUWPiLRgRvVY5uWbvm-25" target="F5RUWPiLRgRvVY5uWbvm-152">
          <mxGeometry width="50" height="50" relative="1" as="geometry">
            <mxPoint x="810" y="79.25999999999999" as="sourcePoint" />
            <mxPoint x="480" y="520" as="targetPoint" />
            <Array as="points">
              <mxPoint x="830" y="80" />
              <mxPoint x="830" y="460" />
              <mxPoint x="480" y="460" />
              <mxPoint x="480" y="520" />
            </Array>
          </mxGeometry>
        </mxCell>
        <mxCell id="F5RUWPiLRgRvVY5uWbvm-152" value="Score Board" style="rounded=0;whiteSpace=wrap;html=1;" vertex="1" parent="1">
          <mxGeometry x="520" y="505.69" width="50" height="28" as="geometry" />
        </mxCell>
        <mxCell id="F5RUWPiLRgRvVY5uWbvm-153" value="Score Board" style="rounded=0;whiteSpace=wrap;html=1;" vertex="1" parent="1">
          <mxGeometry x="520" y="562.8199999999999" width="50" height="28" as="geometry" />
        </mxCell>
        <mxCell id="F5RUWPiLRgRvVY5uWbvm-154" value="Score Board" style="rounded=0;whiteSpace=wrap;html=1;" vertex="1" parent="1">
          <mxGeometry x="520" y="622.69" width="50" height="28" as="geometry" />
        </mxCell>
        <mxCell id="F5RUWPiLRgRvVY5uWbvm-157" value="" style="endArrow=none;html=1;rounded=0;exitX=-0.002;exitY=0.62;exitDx=0;exitDy=0;exitPerimeter=0;" edge="1" parent="1" source="F5RUWPiLRgRvVY5uWbvm-153">
          <mxGeometry width="50" height="50" relative="1" as="geometry">
            <mxPoint x="442.07" y="619.56" as="sourcePoint" />
            <mxPoint x="480" y="520" as="targetPoint" />
            <Array as="points">
              <mxPoint x="480" y="580" />
            </Array>
          </mxGeometry>
        </mxCell>
        <mxCell id="F5RUWPiLRgRvVY5uWbvm-158" value="" style="endArrow=none;html=1;rounded=0;exitX=-0.002;exitY=0.62;exitDx=0;exitDy=0;exitPerimeter=0;" edge="1" parent="1">
          <mxGeometry width="50" height="50" relative="1" as="geometry">
            <mxPoint x="520" y="639.56" as="sourcePoint" />
            <mxPoint x="480" y="579.56" as="targetPoint" />
            <Array as="points">
              <mxPoint x="480" y="639.56" />
            </Array>
          </mxGeometry>
        </mxCell>
        <mxCell id="F5RUWPiLRgRvVY5uWbvm-159" value="" style="shape=xor;whiteSpace=wrap;html=1;" vertex="1" parent="1">
          <mxGeometry x="585.25" y="287.13" width="26.75" height="43" as="geometry" />
        </mxCell>
        <mxCell id="F5RUWPiLRgRvVY5uWbvm-160" value="" style="endArrow=none;html=1;rounded=0;" edge="1" parent="1">
          <mxGeometry width="50" height="50" relative="1" as="geometry">
            <mxPoint x="570" y="298" as="sourcePoint" />
            <mxPoint x="590" y="298" as="targetPoint" />
          </mxGeometry>
        </mxCell>
        <mxCell id="F5RUWPiLRgRvVY5uWbvm-161" value="" style="endArrow=none;html=1;rounded=0;exitX=1.002;exitY=0.633;exitDx=0;exitDy=0;exitPerimeter=0;" edge="1" parent="1">
          <mxGeometry width="50" height="50" relative="1" as="geometry">
            <mxPoint x="570" y="581.56" as="sourcePoint" />
            <mxPoint x="590" y="541.56" as="targetPoint" />
            <Array as="points">
              <mxPoint x="580" y="581.56" />
              <mxPoint x="580" y="541.56" />
            </Array>
          </mxGeometry>
        </mxCell>
        <mxCell id="F5RUWPiLRgRvVY5uWbvm-162" value="" style="endArrow=none;html=1;rounded=0;exitX=1.005;exitY=0.527;exitDx=0;exitDy=0;exitPerimeter=0;entryX=0.218;entryY=0.313;entryDx=0;entryDy=0;entryPerimeter=0;" edge="1" parent="1" target="F5RUWPiLRgRvVY5uWbvm-164">
          <mxGeometry width="50" height="50" relative="1" as="geometry">
            <mxPoint x="612" y="531.56" as="sourcePoint" />
            <mxPoint x="670" y="529.56" as="targetPoint" />
          </mxGeometry>
        </mxCell>
        <mxCell id="F5RUWPiLRgRvVY5uWbvm-163" value="" style="endArrow=none;html=1;rounded=0;exitX=1;exitY=0.5;exitDx=0;exitDy=0;entryX=0.174;entryY=0.785;entryDx=0;entryDy=0;entryPerimeter=0;" edge="1" parent="1" target="F5RUWPiLRgRvVY5uWbvm-164">
          <mxGeometry width="50" height="50" relative="1" as="geometry">
            <mxPoint x="570" y="637.56" as="sourcePoint" />
            <mxPoint x="670" y="549.56" as="targetPoint" />
            <Array as="points">
              <mxPoint x="610" y="637.56" />
              <mxPoint x="610" y="551.56" />
            </Array>
          </mxGeometry>
        </mxCell>
        <mxCell id="F5RUWPiLRgRvVY5uWbvm-164" value="" style="shape=xor;whiteSpace=wrap;html=1;" vertex="1" parent="1">
          <mxGeometry x="636" y="517.8199999999999" width="26.75" height="43" as="geometry" />
        </mxCell>
        <mxCell id="F5RUWPiLRgRvVY5uWbvm-165" value="" style="shape=xor;whiteSpace=wrap;html=1;" vertex="1" parent="1">
          <mxGeometry x="585.25" y="508.69" width="26.75" height="43" as="geometry" />
        </mxCell>
        <mxCell id="F5RUWPiLRgRvVY5uWbvm-166" value="" style="endArrow=none;html=1;rounded=0;" edge="1" parent="1">
          <mxGeometry width="50" height="50" relative="1" as="geometry">
            <mxPoint x="570" y="519.56" as="sourcePoint" />
            <mxPoint x="590" y="519.56" as="targetPoint" />
          </mxGeometry>
        </mxCell>
        <mxCell id="F5RUWPiLRgRvVY5uWbvm-167" value="" style="triangle;whiteSpace=wrap;html=1;" vertex="1" parent="1">
          <mxGeometry x="680" y="533.0699999999999" width="20" height="13" as="geometry" />
        </mxCell>
        <mxCell id="F5RUWPiLRgRvVY5uWbvm-168" value="" style="endArrow=none;html=1;rounded=0;exitX=1;exitY=0.5;exitDx=0;exitDy=0;entryX=0;entryY=0.75;entryDx=0;entryDy=0;entryPerimeter=0;" edge="1" parent="1" source="F5RUWPiLRgRvVY5uWbvm-167">
          <mxGeometry width="50" height="50" relative="1" as="geometry">
            <mxPoint x="711" y="539.5699999999999" as="sourcePoint" />
            <mxPoint x="719" y="539.8850000000001" as="targetPoint" />
          </mxGeometry>
        </mxCell>
        <mxCell id="F5RUWPiLRgRvVY5uWbvm-170" value="" style="endArrow=none;html=1;rounded=0;" edge="1" parent="1">
          <mxGeometry width="50" height="50" relative="1" as="geometry">
            <mxPoint x="662.75" y="539.0699999999999" as="sourcePoint" />
            <mxPoint x="680" y="538.94" as="targetPoint" />
          </mxGeometry>
        </mxCell>
        <mxCell id="F5RUWPiLRgRvVY5uWbvm-172" value="" style="endArrow=none;html=1;rounded=0;entryX=-0.007;entryY=0.772;entryDx=0;entryDy=0;entryPerimeter=0;" edge="1" parent="1" target="F5RUWPiLRgRvVY5uWbvm-194">
          <mxGeometry width="50" height="50" relative="1" as="geometry">
            <mxPoint x="640" y="680" as="sourcePoint" />
            <mxPoint x="719.56" y="549.8653" as="targetPoint" />
            <Array as="points">
              <mxPoint x="680" y="680" />
              <mxPoint x="680" y="560" />
            </Array>
          </mxGeometry>
        </mxCell>
        <mxCell id="F5RUWPiLRgRvVY5uWbvm-173" value="" style="shape=or;whiteSpace=wrap;html=1;" vertex="1" parent="1">
          <mxGeometry x="620" y="663.56" width="20" height="31.44" as="geometry" />
        </mxCell>
        <mxCell id="F5RUWPiLRgRvVY5uWbvm-174" value="" style="endArrow=none;html=1;rounded=0;" edge="1" parent="1">
          <mxGeometry width="50" height="50" relative="1" as="geometry">
            <mxPoint x="520" y="670" as="sourcePoint" />
            <mxPoint x="620" y="670" as="targetPoint" />
          </mxGeometry>
        </mxCell>
        <mxCell id="F5RUWPiLRgRvVY5uWbvm-175" value="&lt;font style=&quot;font-size: 10px;&quot;&gt;opcode_a_accept_r&lt;/font&gt;" style="text;strokeColor=none;align=center;fillColor=none;html=1;verticalAlign=middle;whiteSpace=wrap;rounded=0;" vertex="1" parent="1">
          <mxGeometry x="529" y="656.56" width="89" height="10" as="geometry" />
        </mxCell>
        <mxCell id="F5RUWPiLRgRvVY5uWbvm-176" value="" style="endArrow=none;html=1;rounded=0;" edge="1" parent="1">
          <mxGeometry width="50" height="50" relative="1" as="geometry">
            <mxPoint x="560" y="710" as="sourcePoint" />
            <mxPoint x="620" y="690" as="targetPoint" />
            <Array as="points">
              <mxPoint x="590" y="710" />
              <mxPoint x="590" y="690" />
            </Array>
          </mxGeometry>
        </mxCell>
        <mxCell id="F5RUWPiLRgRvVY5uWbvm-177" value="" style="shape=or;whiteSpace=wrap;html=1;" vertex="1" parent="1">
          <mxGeometry x="539.5" y="694" width="20" height="31.44" as="geometry" />
        </mxCell>
        <mxCell id="F5RUWPiLRgRvVY5uWbvm-178" value="" style="endArrow=none;html=1;rounded=0;" edge="1" parent="1">
          <mxGeometry width="50" height="50" relative="1" as="geometry">
            <mxPoint x="490" y="700" as="sourcePoint" />
            <mxPoint x="539.5" y="700" as="targetPoint" />
          </mxGeometry>
        </mxCell>
        <mxCell id="F5RUWPiLRgRvVY5uWbvm-179" value="" style="endArrow=none;html=1;rounded=0;" edge="1" parent="1">
          <mxGeometry width="50" height="50" relative="1" as="geometry">
            <mxPoint x="490" y="720" as="sourcePoint" />
            <mxPoint x="539.5" y="720" as="targetPoint" />
          </mxGeometry>
        </mxCell>
        <mxCell id="F5RUWPiLRgRvVY5uWbvm-180" value="&lt;font style=&quot;font-size: 10px;&quot;&gt;dual_issue_ok_w&lt;/font&gt;" style="text;strokeColor=none;align=center;fillColor=none;html=1;verticalAlign=middle;whiteSpace=wrap;rounded=0;" vertex="1" parent="1">
          <mxGeometry x="457.5" y="687" width="79.5" height="10" as="geometry" />
        </mxCell>
        <mxCell id="F5RUWPiLRgRvVY5uWbvm-181" value="&lt;font style=&quot;font-size: 10px;&quot;&gt;opcode_b_valid_r&lt;/font&gt;" style="text;strokeColor=none;align=center;fillColor=none;html=1;verticalAlign=middle;whiteSpace=wrap;rounded=0;" vertex="1" parent="1">
          <mxGeometry x="456" y="706.72" width="79.5" height="10" as="geometry" />
        </mxCell>
        <mxCell id="F5RUWPiLRgRvVY5uWbvm-184" value="" style="endArrow=none;html=1;rounded=0;entryX=0.59;entryY=0.999;entryDx=0;entryDy=0;entryPerimeter=0;" edge="1" parent="1">
          <mxGeometry width="50" height="50" relative="1" as="geometry">
            <mxPoint x="750" y="310" as="sourcePoint" />
            <mxPoint x="868.44813" y="310.06499999999994" as="targetPoint" />
          </mxGeometry>
        </mxCell>
        <mxCell id="F5RUWPiLRgRvVY5uWbvm-185" value="" style="shape=or;whiteSpace=wrap;html=1;" vertex="1" parent="1">
          <mxGeometry x="719" y="290.5" width="20" height="33.26" as="geometry" />
        </mxCell>
        <mxCell id="F5RUWPiLRgRvVY5uWbvm-187" value="" style="endArrow=none;html=1;rounded=0;exitX=0.186;exitY=1.042;exitDx=0;exitDy=0;exitPerimeter=0;" edge="1" parent="1">
          <mxGeometry width="50" height="50" relative="1" as="geometry">
            <mxPoint x="867.88354" y="289.8649999999999" as="sourcePoint" />
            <mxPoint x="840" y="290" as="targetPoint" />
          </mxGeometry>
        </mxCell>
        <mxCell id="F5RUWPiLRgRvVY5uWbvm-188" value="&lt;font style=&quot;font-size: 10px;&quot;&gt;32&#39;b0&lt;/font&gt;" style="text;strokeColor=none;align=center;fillColor=none;html=1;verticalAlign=middle;whiteSpace=wrap;rounded=0;" vertex="1" parent="1">
          <mxGeometry x="840" y="279.49" width="30" height="10" as="geometry" />
        </mxCell>
        <mxCell id="F5RUWPiLRgRvVY5uWbvm-189" value="" style="shape=trapezoid;perimeter=trapezoidPerimeter;whiteSpace=wrap;html=1;fixedSize=1;rotation=90;size=13.75;" vertex="1" parent="1">
          <mxGeometry x="850" y="296" width="50" height="13.13" as="geometry" />
        </mxCell>
        <mxCell id="F5RUWPiLRgRvVY5uWbvm-190" value="" style="endArrow=classic;html=1;rounded=0;exitX=0.444;exitY=0.001;exitDx=0;exitDy=0;exitPerimeter=0;endFill=1;" edge="1" parent="1" source="F5RUWPiLRgRvVY5uWbvm-189">
          <mxGeometry width="50" height="50" relative="1" as="geometry">
            <mxPoint x="890" y="305.13" as="sourcePoint" />
            <mxPoint x="930" y="300" as="targetPoint" />
          </mxGeometry>
        </mxCell>
        <mxCell id="F5RUWPiLRgRvVY5uWbvm-191" value="&lt;font style=&quot;font-size: 10px;&quot;&gt;opcode_a_issue_r&lt;/font&gt;" style="text;strokeColor=none;align=center;fillColor=none;html=1;verticalAlign=middle;whiteSpace=wrap;rounded=0;" vertex="1" parent="1">
          <mxGeometry x="930" y="294" width="90" height="10" as="geometry" />
        </mxCell>
        <mxCell id="F5RUWPiLRgRvVY5uWbvm-194" value="" style="shape=or;whiteSpace=wrap;html=1;" vertex="1" parent="1">
          <mxGeometry x="719" y="532.8" width="20" height="35.2" as="geometry" />
        </mxCell>
        <mxCell id="F5RUWPiLRgRvVY5uWbvm-196" value="" style="endArrow=none;html=1;rounded=0;exitX=1.02;exitY=0.472;exitDx=0;exitDy=0;exitPerimeter=0;" edge="1" parent="1" source="F5RUWPiLRgRvVY5uWbvm-194">
          <mxGeometry width="50" height="50" relative="1" as="geometry">
            <mxPoint x="739" y="543.47" as="sourcePoint" />
            <mxPoint x="800" y="549" as="targetPoint" />
          </mxGeometry>
        </mxCell>
        <mxCell id="F5RUWPiLRgRvVY5uWbvm-198" value="" style="endArrow=none;html=1;rounded=0;exitX=0.186;exitY=1.042;exitDx=0;exitDy=0;exitPerimeter=0;" edge="1" parent="1">
          <mxGeometry width="50" height="50" relative="1" as="geometry">
            <mxPoint x="799.88354" y="529.1949999999999" as="sourcePoint" />
            <mxPoint x="772" y="529.33" as="targetPoint" />
          </mxGeometry>
        </mxCell>
        <mxCell id="F5RUWPiLRgRvVY5uWbvm-199" value="&lt;font style=&quot;font-size: 10px;&quot;&gt;32&#39;b0&lt;/font&gt;" style="text;strokeColor=none;align=center;fillColor=none;html=1;verticalAlign=middle;whiteSpace=wrap;rounded=0;" vertex="1" parent="1">
          <mxGeometry x="772" y="518.82" width="30" height="10" as="geometry" />
        </mxCell>
        <mxCell id="F5RUWPiLRgRvVY5uWbvm-200" value="" style="shape=trapezoid;perimeter=trapezoidPerimeter;whiteSpace=wrap;html=1;fixedSize=1;rotation=90;size=13.75;" vertex="1" parent="1">
          <mxGeometry x="782" y="535.33" width="50" height="13.13" as="geometry" />
        </mxCell>
        <mxCell id="F5RUWPiLRgRvVY5uWbvm-201" value="" style="endArrow=classic;html=1;rounded=0;exitX=0.444;exitY=0.001;exitDx=0;exitDy=0;exitPerimeter=0;endFill=1;" edge="1" parent="1" source="F5RUWPiLRgRvVY5uWbvm-200">
          <mxGeometry width="50" height="50" relative="1" as="geometry">
            <mxPoint x="822" y="544.46" as="sourcePoint" />
            <mxPoint x="862" y="539.33" as="targetPoint" />
          </mxGeometry>
        </mxCell>
        <mxCell id="F5RUWPiLRgRvVY5uWbvm-202" value="&lt;font style=&quot;font-size: 10px;&quot;&gt;opcode_b_issue_r&lt;/font&gt;" style="text;strokeColor=none;align=center;fillColor=none;html=1;verticalAlign=middle;whiteSpace=wrap;rounded=0;" vertex="1" parent="1">
          <mxGeometry x="862" y="533.33" width="90" height="10" as="geometry" />
        </mxCell>
        <mxCell id="F5RUWPiLRgRvVY5uWbvm-203" value="" style="endArrow=none;html=1;rounded=0;exitX=0.805;exitY=0.291;exitDx=0;exitDy=0;exitPerimeter=0;" edge="1" parent="1" source="F5RUWPiLRgRvVY5uWbvm-200">
          <mxGeometry width="50" height="50" relative="1" as="geometry">
            <mxPoint x="724" y="493.47" as="sourcePoint" />
            <mxPoint x="770" y="440" as="targetPoint" />
            <Array as="points">
              <mxPoint x="810" y="600" />
              <mxPoint x="770" y="600" />
            </Array>
          </mxGeometry>
        </mxCell>
      </root>
    </mxGraphModel>
  </diagram>
</mxfile>
